<svg width="140" height="115" viewBox="0 0 140 115" fill="none" xmlns="http://www.w3.org/2000/svg">
<path d="M29.2185 74.2934L84.7889 19.0531L112.289 19.0531L29.2185 102.293L29.2185 74.2934Z" fill="#FF2430"/>
<path d="M43.2261 82.1085C43.1506 82.1839 43.0639 82.2254 42.9658 82.2329C42.8678 82.2254 42.781 82.1839 42.7056 82.1085L35.3178 74.7206C35.2348 74.6377 35.1933 74.5509 35.1933 74.4604C35.1933 74.3548 35.231 74.2643 35.3065 74.1889L38.4064 71.0889C39.2135 70.2819 40.013 69.8671 40.8049 69.8444C41.5969 69.8218 42.3059 70.1235 42.9319 70.7495C43.3543 71.1719 43.6069 71.6207 43.6899 72.0959C43.7804 72.5635 43.7578 72.9934 43.622 73.3856C44.0972 73.2272 44.6101 73.2046 45.1607 73.3177C45.7113 73.4309 46.2016 73.7024 46.6315 74.1323C47.0539 74.5547 47.3405 75.0374 47.4913 75.5805C47.6497 76.116 47.6422 76.6741 47.4687 77.2549C47.2952 77.8357 46.9445 78.39 46.4165 78.918L43.2261 82.1085ZM41.5856 74.6075C42.0607 74.1323 42.3134 73.6609 42.3436 73.1933C42.3813 72.7181 42.204 72.2844 41.8118 71.8922C41.4272 71.5075 41.0086 71.3378 40.556 71.3831C40.1035 71.4283 39.6358 71.6923 39.1531 72.175L37.0714 74.2568L39.5038 76.6892L41.5856 74.6075ZM45.353 78.1487C45.8282 77.6735 46.0696 77.1757 46.0771 76.6553C46.0922 76.1273 45.8999 75.6634 45.5001 75.2637C45.0853 74.8489 44.6176 74.6528 44.0972 74.6754C43.5768 74.6829 43.079 74.9243 42.6038 75.3995L40.4089 77.5943L43.1582 80.3435L45.353 78.1487Z" fill="#FBFBFF"/>
<path d="M50.2176 75.117C50.1421 75.1924 50.0554 75.2339 49.9574 75.2414C49.8593 75.2339 49.7726 75.1924 49.6971 75.117L42.298 67.7178C42.2226 67.6424 42.1848 67.5594 42.1848 67.4689C42.1848 67.3633 42.2226 67.2728 42.298 67.1974L42.875 66.6204C42.9504 66.5449 43.0409 66.5072 43.1465 66.5072C43.2446 66.4997 43.3313 66.5336 43.4067 66.6091L46.156 69.3583L47.6041 67.9101C48.4338 67.0805 49.2785 66.6505 50.1384 66.6204C50.9907 66.5827 51.8128 66.9598 52.6048 67.7517C53.0498 68.1967 53.3628 68.7059 53.5438 69.2791C53.7324 69.8448 53.7474 70.4406 53.5891 71.0667C53.4307 71.6776 53.0724 72.2621 52.5143 72.8203L50.2176 75.117ZM56.4401 68.8944C56.3647 68.9699 56.2779 69.0113 56.1799 69.0189C56.0818 69.0113 55.9951 68.9699 55.9197 68.8944L48.5205 61.4953C48.4451 61.4198 48.4074 61.3369 48.4074 61.2464C48.4074 61.1408 48.4451 61.0503 48.5205 60.9748L49.1201 60.3752C49.1956 60.2998 49.2823 60.2658 49.3804 60.2734C49.4784 60.2658 49.5651 60.2998 49.6406 60.3752L57.0397 67.7744C57.1152 67.8498 57.1529 67.9403 57.1529 68.0459C57.1529 68.1364 57.1152 68.2194 57.0397 68.2948L56.4401 68.8944ZM51.4734 71.9604C51.9561 71.4777 52.1937 70.9611 52.1862 70.4105C52.1711 69.8523 51.9259 69.3357 51.4508 68.8605C50.4778 67.8875 49.4784 67.9139 48.4526 68.9397L47.095 70.2973L50.1157 73.3181L51.4734 71.9604Z" fill="#FBFBFF"/>
<path d="M58.9658 66.3687C58.8904 66.4442 58.8036 66.4856 58.7056 66.4932C58.6075 66.4856 58.5208 66.4442 58.4454 66.3687L51.0575 58.9809C50.9746 58.8979 50.9331 58.8112 50.9331 58.7207C50.9331 58.6151 50.9708 58.5246 51.0462 58.4491L55.402 54.0934C55.485 54.0104 55.5755 53.9727 55.6735 53.9802C55.7716 53.9727 55.8621 54.0104 55.945 54.0934L56.3976 54.5459C56.473 54.6213 56.5107 54.7118 56.5107 54.8174C56.5107 54.9079 56.4693 54.9947 56.3863 55.0777L52.879 58.5849L59.5541 65.26C59.6295 65.3354 59.6673 65.4259 59.6673 65.5315C59.6597 65.6296 59.6182 65.7163 59.5428 65.7917L58.9658 66.3687Z" fill="#FBFBFF"/>
<path d="M66.8825 58.6783C65.8944 59.6664 64.8724 60.1755 63.8165 60.2057C62.7605 60.2208 61.697 59.723 60.626 58.7123C60.3922 58.4935 60.0679 58.1768 59.653 57.7619C59.2382 57.3471 58.9252 57.0265 58.714 56.8003C57.7259 55.7518 57.247 54.6846 57.2771 53.5985C57.2998 52.5048 57.7863 51.4828 58.7366 50.5325C59.6794 49.5896 60.6977 49.1069 61.7913 49.0843C62.8774 49.0541 63.9447 49.5331 64.9931 50.5211C65.4456 50.9435 65.77 51.2528 65.9661 51.4489C66.1546 51.6374 66.4677 51.9655 66.9051 52.4332C67.9158 53.5042 68.4098 54.5714 68.3872 55.6349C68.3646 56.6833 67.863 57.6978 66.8825 58.6783ZM65.9208 57.7167C66.5167 57.1208 66.8108 56.4646 66.8033 55.7481C66.7958 55.0315 66.4337 54.2848 65.7172 53.508C65.2797 53.0403 64.9856 52.7311 64.8347 52.5802C64.6688 52.4143 64.3595 52.1201 63.907 51.6978C63.1301 50.9812 62.3796 50.623 61.6556 50.623C60.939 50.6154 60.2866 50.9058 59.6983 51.4941C59.1024 52.09 58.8045 52.7499 58.8045 53.474C58.812 54.1906 59.1741 54.9373 59.8906 55.7141C60.1018 55.9404 60.3997 56.2459 60.7844 56.6305C61.1615 57.0077 61.467 57.3056 61.7008 57.5243C62.4777 58.2409 63.2244 58.6029 63.9409 58.6104C64.665 58.6104 65.325 58.3125 65.9208 57.7167Z" fill="#FBFBFF"/>
<path d="M72.118 56.3618C72.0426 56.4372 71.9558 56.4787 71.8578 56.4862C71.7673 56.4862 71.6805 56.4447 71.5976 56.3618L69.5272 54.2913C69.4517 54.2159 69.414 54.133 69.414 54.0424C69.414 53.9369 69.4517 53.8463 69.5272 53.7709L69.7647 53.5333C70.4964 52.8017 69.4593 51.033 66.6535 48.2272L64.221 45.7948C64.1456 45.7193 64.1079 45.6364 64.1079 45.5459C64.1079 45.4403 64.1456 45.3497 64.221 45.2743L68.6334 40.862C68.7163 40.779 68.8068 40.7413 68.9049 40.7488C69.003 40.7413 69.0935 40.779 69.1764 40.862L75.8063 47.4918L76.3606 46.9374C76.4361 46.862 76.5266 46.8243 76.6322 46.8243C76.7302 46.8168 76.817 46.8507 76.8924 46.9261L78.9628 48.9965C79.0382 49.072 79.0722 49.1587 79.0646 49.2567C79.0722 49.3548 79.0344 49.4453 78.9515 49.5283L78.3745 50.1053C78.2991 50.1807 78.2123 50.2222 78.1143 50.2297C78.0238 50.2297 77.937 50.1882 77.854 50.1053L76.5417 48.7929L71.3939 53.9406L72.7063 55.253C72.7817 55.3284 72.8157 55.4152 72.8081 55.5132C72.8157 55.6113 72.778 55.7018 72.695 55.7848L72.118 56.3618ZM74.6975 48.6006L68.8144 42.7174L66.0652 45.4667L67.8867 47.2882C68.9502 48.3517 69.7497 49.2718 70.2852 50.0487C70.8207 50.8256 71.1299 51.5044 71.2129 52.0852L74.6975 48.6006Z" fill="#FBFBFF"/>
<path d="M78.714 46.6206C78.6386 46.696 78.5518 46.7375 78.4538 46.745C78.3557 46.7375 78.269 46.696 78.1935 46.6206L70.8057 39.2327C70.7227 39.1497 70.6812 39.063 70.6812 38.9725C70.6812 38.8669 70.719 38.7764 70.7944 38.701L71.3714 38.124C71.4543 38.041 71.5449 38.0033 71.6429 38.0108C71.741 38.0033 71.8315 38.041 71.9144 38.124L75.037 41.2466L78.9289 37.3546L75.8064 34.2321C75.7234 34.1491 75.6819 34.0623 75.6819 33.9718C75.6819 33.8662 75.7196 33.7757 75.795 33.7003L76.372 33.1233C76.455 33.0403 76.5455 33.0026 76.6436 33.0102C76.7416 33.0026 76.8321 33.0403 76.9151 33.1233L84.3029 40.5112C84.3784 40.5866 84.4161 40.6771 84.4161 40.7827C84.4085 40.8807 84.3671 40.9675 84.2916 41.0429L83.7146 41.6199C83.6392 41.6953 83.5525 41.7368 83.4544 41.7444C83.3564 41.7368 83.2696 41.6953 83.1942 41.6199L79.9472 38.3729L76.0553 42.2648L79.3023 45.5118C79.3777 45.5872 79.4154 45.6778 79.4154 45.7833C79.4079 45.8814 79.3664 45.9681 79.291 46.0436L78.714 46.6206Z" fill="#FBFBFF"/>
<path d="M88.9288 36.6321C87.9407 37.6201 86.9187 38.1292 85.8627 38.1594C84.8068 38.1745 83.7433 37.6767 82.6723 36.666C82.4385 36.4473 82.1141 36.1305 81.6993 35.7157C81.2845 35.3008 80.9714 34.9803 80.7603 34.754C79.7722 33.7056 79.2932 32.6383 79.3234 31.5522C79.346 30.4585 79.8325 29.4365 80.7829 28.4862C81.7257 27.5434 82.7439 27.0607 83.8376 27.038C84.9237 27.0079 85.991 27.4868 87.0394 28.4749C87.4919 28.8973 87.8162 29.2065 88.0123 29.4026C88.2009 29.5912 88.5139 29.9193 88.9514 30.3869C89.9621 31.4579 90.4561 32.5252 90.4335 33.5887C90.4108 34.6371 89.9093 35.6515 88.9288 36.6321ZM87.9671 35.6704C88.5629 35.0745 88.8571 34.4183 88.8496 33.7018C88.842 32.9853 88.48 32.2386 87.7634 31.4617C87.326 30.9941 87.0318 30.6848 86.881 30.534C86.715 30.368 86.4058 30.0739 85.9532 29.6515C85.1764 28.935 84.4259 28.5767 83.7018 28.5767C82.9853 28.5692 82.3329 28.8595 81.7445 29.4479C81.1487 30.0437 80.8508 30.7037 80.8508 31.4278C80.8583 32.1443 81.2203 32.891 81.9369 33.6679C82.1481 33.8941 82.446 34.1996 82.8307 34.5843C83.2078 34.9614 83.5133 35.2593 83.7471 35.4781C84.5239 36.1946 85.2707 36.5566 85.9872 36.5642C86.7113 36.5642 87.3712 36.2663 87.9671 35.6704Z" fill="#FBFBFF"/>
<path d="M34.2185 97.2934L29.2185 102.293L34.2185 111.293V97.2934Z" fill="#A21A22"/>
<path d="M108.219 23.2934L112.219 19.2934L122.719 23.2934H108.219Z" fill="#9B1921"/>
</svg>
