<svg width="507" height="312" viewBox="0 0 507 312" fill="none" xmlns="http://www.w3.org/2000/svg">
<path d="M-74.5667 210.395C-79.3852 213.177 -84.0319 214.83 -88.5066 215.354C-92.9551 215.781 -96.8681 215.281 -100.246 213.854C-103.561 212.391 -106.119 210.243 -107.919 207.411C-108.204 206.917 -108.268 206.377 -108.112 205.793C-107.955 205.208 -107.599 204.755 -107.043 204.434L-105.19 203.364C-104.078 202.722 -103.041 202.948 -102.081 204.041C-99.9365 206.756 -96.7397 208.37 -92.4904 208.882C-88.2411 209.394 -83.3365 208.045 -77.7767 204.835C-71.9079 201.447 -68.159 197.882 -66.5299 194.141C-64.8748 190.302 -65.1529 186.468 -67.3642 182.638C-68.7195 180.29 -70.5356 178.785 -72.8125 178.123C-75.0632 177.363 -77.8378 177.194 -81.1362 177.616C-84.4702 177.976 -89.3239 178.842 -95.6971 180.216C-101.346 181.418 -105.957 182.062 -109.531 182.149C-113.043 182.2 -116.072 181.519 -118.618 180.105C-121.164 178.692 -123.4 176.318 -125.326 172.982C-127.145 169.831 -127.951 166.508 -127.746 163.012C-127.478 159.481 -126.148 156.077 -123.756 152.802C-121.4 149.464 -117.998 146.512 -113.55 143.944C-108.979 141.304 -104.574 139.873 -100.337 139.651C-96.1356 139.367 -92.4697 140.01 -89.3394 141.58C-86.2447 143.088 -83.9045 145.072 -82.3186 147.534C-82.0333 148.028 -81.9689 148.568 -82.1256 149.152C-82.2205 149.701 -82.5768 150.154 -83.1946 150.511L-85.0479 151.581C-85.4803 151.83 -85.9841 151.957 -86.5592 151.959C-87.1699 151.9 -87.7024 151.548 -88.1565 150.904C-90.3105 148.03 -93.4408 146.46 -97.5474 146.195C-101.628 145.833 -105.892 146.936 -110.34 149.504C-115.097 152.25 -118.361 155.37 -120.133 158.864C-121.843 162.322 -121.628 165.905 -119.488 169.611C-118.097 172.021 -116.32 173.672 -114.157 174.564C-111.968 175.36 -109.268 175.613 -106.058 175.325C-102.883 174.974 -98.3607 174.176 -92.4912 172.928C-86.4982 171.61 -81.6528 170.872 -77.9551 170.714C-74.2574 170.556 -71.0918 171.117 -68.4583 172.397C-65.763 173.641 -63.4523 175.931 -61.5263 179.267C-58.3163 184.827 -57.8713 190.377 -60.1913 195.917C-62.547 201.396 -67.3388 206.222 -74.5667 210.395ZM-40.1236 189.274C-40.7414 189.63 -41.3426 189.73 -41.9273 189.574C-42.5119 189.417 -42.9826 189.03 -43.3392 188.412L-78.3817 127.716C-78.7384 127.099 -78.8384 126.498 -78.6818 125.913C-78.5608 125.266 -78.1914 124.765 -77.5736 124.408L-75.9057 123.445C-75.2261 123.053 -74.594 122.935 -74.0094 123.092C-73.4247 123.248 -72.9362 123.666 -72.5439 124.346L-56.9219 151.404L-21.1533 130.753L-36.7753 103.695C-37.1319 103.077 -37.232 102.476 -37.0753 101.891C-36.9543 101.245 -36.5849 100.743 -35.9672 100.387L-34.2992 99.4237C-33.6197 99.0314 -32.9876 98.9135 -32.4029 99.0702C-31.8182 99.2268 -31.3297 99.6449 -30.9374 100.324L4.10509 161.02C4.46176 161.638 4.53088 162.257 4.31244 162.877C4.15578 163.462 3.76857 163.932 3.1508 164.289L1.48284 165.252C0.865074 165.609 0.263863 165.709 -0.320794 165.552C-0.905452 165.395 -1.37611 165.008 -1.73278 164.39L-17.9433 136.313L-53.7119 156.964L-37.5014 185.041C-37.1447 185.659 -37.0756 186.278 -37.294 186.899C-37.4507 187.483 -37.8379 187.954 -38.4557 188.311L-40.1236 189.274ZM41.5111 143.377C25.6346 152.544 12.5581 148.726 2.28162 131.926C1.14985 130.108 -0.379043 127.531 -2.30504 124.195C-4.23104 120.859 -5.69815 118.247 -6.70638 116.358C-11.3099 107.814 -12.6979 100.131 -10.8702 93.3101C-9.0425 86.4891 -4.42207 80.9386 2.99111 76.6586C10.4043 72.3786 17.5214 71.1524 24.3424 72.9801C31.1634 74.8078 37.1228 79.8511 42.2206 88.1101C44.4841 91.7453 46.0439 94.3043 46.8999 95.7869C47.7559 97.2695 49.1921 99.8998 51.2086 103.678C60.6202 120.978 57.3877 134.211 41.5111 143.377ZM38.3011 137.817C43.861 134.607 47.315 130.389 48.6632 125.163C50.0374 119.839 48.8508 113.647 45.1032 106.585C43.0868 102.807 41.7397 100.331 41.062 99.1574C40.3844 97.9836 38.9138 95.5791 36.6502 91.9439C32.4084 85.1676 27.6566 81.0745 22.3947 79.6645C17.0971 78.1928 11.6992 79.0441 6.20111 82.2185C0.703001 85.3928 -2.73318 89.6418 -4.10745 94.9655C-5.51738 100.227 -4.34856 106.389 -0.601 113.451C0.407223 115.34 1.78517 117.798 3.53283 120.825C5.2805 123.852 6.72022 126.274 7.852 128.092C12.0938 134.868 16.8326 139.01 22.0684 140.517C27.3303 141.927 32.7412 141.027 38.3011 137.817ZM78.7008 120.67C78.083 121.027 77.4818 121.127 76.8971 120.97C76.3125 120.814 75.8418 120.426 75.4852 119.809L40.4427 59.1132C40.086 58.4954 39.986 57.8942 40.1426 57.3095C40.2636 56.6631 40.633 56.1616 41.2508 55.8049L63.7683 42.8044C70.3784 38.9881 76.5306 37.66 82.225 38.8203C87.9455 39.8831 92.589 43.5033 96.1557 49.681C99.7224 55.8586 100.554 61.7211 98.6495 67.2684C96.7715 72.7182 92.5274 77.3513 85.9173 81.1676L67.199 91.9746L81.323 116.438C81.6797 117.056 81.7488 117.675 81.5304 118.295C81.3737 118.88 80.9865 119.351 80.3687 119.707L78.7008 120.67ZM82.244 75.8752C87.5568 72.8079 90.8815 69.3645 92.2182 65.5451C93.5193 61.6639 92.8858 57.4994 90.3178 53.0515C87.7498 48.6036 84.4778 46.0036 80.5017 45.2515C76.49 44.4377 71.8278 45.5644 66.515 48.6318L48.26 59.1713L63.989 86.4147L82.244 75.8752ZM153.639 78.6401C137.762 87.8064 124.686 83.9893 114.41 67.1886C113.278 65.371 111.749 62.7942 109.823 59.4583C107.897 56.1224 106.43 53.5099 105.422 51.621C100.818 43.0767 99.4301 35.3941 101.258 28.573C103.085 21.752 107.706 16.2015 115.119 11.9215C122.532 7.64151 129.649 6.41535 136.47 8.24304C143.291 10.0707 149.251 15.114 154.349 23.373C156.612 27.0082 158.172 29.5672 159.028 31.0498C159.884 32.5324 161.32 35.1627 163.337 38.9406C172.748 56.2406 169.516 69.4738 153.639 78.6401ZM150.429 73.0802C155.989 69.8702 159.443 65.6521 160.791 60.4258C162.165 55.1021 160.979 48.9095 157.231 41.8478C155.215 38.0699 153.868 35.5941 153.19 34.4203C152.512 33.2466 151.042 30.842 148.778 27.2068C144.536 20.4305 139.785 16.3374 134.523 14.9274C129.225 13.4557 123.827 14.3071 118.329 17.4814C112.831 20.6557 109.395 24.9047 108.02 30.2285C106.611 35.4904 107.779 41.6522 111.527 48.7138C112.535 50.6028 113.913 53.0608 115.661 56.0878C117.408 59.1149 118.848 61.5372 119.98 63.3548C124.222 70.1311 128.96 74.273 134.196 75.7803C139.458 77.1903 144.869 76.2902 150.429 73.0802ZM211.565 45.1968C203.843 49.6551 196.566 50.8908 189.736 48.9039C182.905 46.917 177.208 42.2574 172.646 34.9251C171.514 33.1075 169.789 30.1909 167.47 26.1755C165.152 22.16 163.489 19.2078 162.481 17.3188C158.412 9.70119 157.225 2.43792 158.92 -4.47098C160.614 -11.3799 165.323 -17.0635 173.045 -21.5218C178.296 -24.5535 183.283 -26.1153 188.008 -26.2071C192.732 -26.2989 196.744 -25.4851 200.043 -23.7656C203.368 -22.1435 205.699 -20.3179 207.035 -18.2889L207.142 -18.1035C207.427 -17.6093 207.474 -17.1008 207.281 -16.5779C207.089 -16.055 206.715 -15.6331 206.159 -15.3121L204.12 -14.1351C203.564 -13.8141 203.092 -13.7058 202.702 -13.8102C202.312 -13.9147 201.78 -14.2662 201.104 -14.8649C198.164 -17.5327 194.538 -19.1047 190.227 -19.581C185.978 -20.093 181.32 -18.8866 176.255 -15.962C170.509 -12.645 166.878 -8.44816 165.361 -3.37156C163.906 1.66937 164.981 7.5971 168.586 14.4116C169.594 16.3006 171.168 19.0984 173.308 22.805C175.448 26.5115 177.084 29.2737 178.216 31.0913C182.315 37.6205 186.911 41.5152 192.004 42.7755C197.159 44.0001 202.609 42.9539 208.355 39.6369C214.1 36.3199 217.788 32.0078 219.419 26.7006C221.05 21.3935 220.011 15.5275 216.301 9.10278L213.573 4.37688L197.449 13.6859C196.831 14.0425 196.23 14.1425 195.645 13.9859C195.025 13.7675 194.537 13.3494 194.18 12.7316L193.431 11.4343C193.074 10.8165 192.974 10.2153 193.131 9.63065C193.252 8.98421 193.621 8.48266 194.239 8.126L214.069 -3.32301C214.749 -3.71534 215.381 -3.83318 215.966 -3.67652C216.55 -3.51986 217.039 -3.10176 217.431 -2.42222L222.139 5.73228C224.992 10.6744 226.519 15.6003 226.717 20.51C226.916 25.4197 225.738 30.0126 223.182 34.2887C220.626 38.5647 216.754 42.2008 211.565 45.1968ZM269.115 11.9699C253.239 21.1362 240.162 17.3191 229.886 0.518449C228.754 -1.29918 227.225 -3.87596 225.299 -7.21189C223.373 -10.5478 221.906 -13.1603 220.898 -15.0492C216.294 -23.5935 214.906 -31.2761 216.734 -38.0972C218.562 -44.9182 223.182 -50.4687 230.595 -54.7487C238.008 -59.0287 245.125 -60.2548 251.946 -58.4272C258.768 -56.5995 264.727 -51.5562 269.825 -43.2972C272.088 -39.662 273.648 -37.103 274.504 -35.6204C275.36 -34.1378 276.796 -31.5075 278.813 -27.7296C288.224 -10.4296 284.992 2.80358 269.115 11.9699ZM265.905 6.41003C271.465 3.20003 274.919 -1.01811 276.267 -6.24437C277.642 -11.5681 276.455 -17.7607 272.707 -24.8224C270.691 -28.6003 269.344 -31.0761 268.666 -32.2499C267.988 -33.4236 266.518 -35.8281 264.254 -39.4634C260.013 -46.2397 255.261 -50.3328 249.999 -51.7427C244.701 -53.2145 239.303 -52.3631 233.805 -49.1888C228.307 -46.0145 224.871 -41.7655 223.497 -36.4417C222.087 -31.1798 223.256 -25.018 227.003 -17.9564C228.011 -16.0674 229.389 -13.6094 231.137 -10.5824C232.885 -7.55534 234.324 -5.13301 235.456 -3.31538C239.698 3.46092 244.437 7.60276 249.672 9.11013C254.934 10.5201 260.345 9.62003 265.905 6.41003ZM306.305 -10.7371C305.687 -10.3804 305.086 -10.2804 304.501 -10.4371C303.917 -10.5937 303.446 -10.9809 303.089 -11.5987L267.993 -72.3868C267.637 -73.0045 267.537 -73.6057 267.693 -74.1904C267.85 -74.7751 268.237 -75.2457 268.855 -75.6024L270.616 -76.6189C271.233 -76.9756 271.834 -77.0756 272.419 -76.9189C273.004 -76.7622 273.474 -76.375 273.831 -75.7573L306.894 -18.4905L338.863 -36.948C339.543 -37.3403 340.175 -37.4581 340.76 -37.3015C341.344 -37.1448 341.833 -36.7267 342.225 -36.0472L343.028 -34.6572C343.384 -34.0394 343.454 -33.4204 343.235 -32.8001C343.078 -32.2154 342.691 -31.7448 342.073 -31.3881L306.305 -10.7371ZM353.365 -37.9071C352.747 -37.5505 352.146 -37.4505 351.561 -37.6071C350.977 -37.7638 350.506 -38.151 350.149 -38.7688L315.053 -99.5568C314.697 -100.175 314.597 -100.776 314.753 -101.36C314.91 -101.945 315.297 -102.416 315.915 -102.772L317.675 -103.789C318.293 -104.146 318.894 -104.246 319.479 -104.089C320.064 -103.932 320.534 -103.545 320.891 -102.927L355.987 -42.1393C356.344 -41.5215 356.444 -40.9203 356.287 -40.3356C356.13 -39.751 355.743 -39.2803 355.125 -38.9236L353.365 -37.9071ZM393.373 -59.7702C385.342 -55.1336 378.017 -53.9109 371.398 -56.1023C364.743 -58.3554 359.05 -63.2229 354.318 -70.7049C353.293 -72.3372 351.693 -75.0375 349.517 -78.8059C347.306 -82.636 345.732 -85.4338 344.795 -87.1992C340.681 -95.0378 339.33 -102.371 340.742 -109.199C342.118 -116.089 346.822 -121.852 354.853 -126.489C360.351 -129.663 365.511 -131.283 370.333 -131.349C375.119 -131.476 379.268 -130.495 382.781 -128.405C386.321 -126.412 389.11 -123.863 391.15 -120.758L391.257 -120.572C391.543 -120.078 391.589 -119.57 391.397 -119.047C391.204 -118.524 390.83 -118.102 390.274 -117.781L388.421 -116.711C387.309 -116.069 386.255 -116.325 385.259 -117.48C381.053 -122.053 376.782 -124.529 372.445 -124.908C368.108 -125.287 363.314 -123.961 358.063 -120.929C352.256 -117.576 348.691 -113.336 347.369 -108.207C346.047 -103.078 347.224 -97.0444 350.9 -90.1064C351.802 -88.4027 353.251 -85.8212 355.248 -82.3617C357.246 -78.9022 358.792 -76.2945 359.889 -74.5387C364.059 -67.8859 368.696 -63.8498 373.798 -62.4303C378.901 -61.0109 384.356 -61.9774 390.163 -65.3301C395.414 -68.3618 398.96 -71.8504 400.8 -75.7959C402.641 -79.7414 402.632 -84.6785 400.774 -90.6071C400.272 -92.0471 400.577 -93.0881 401.689 -93.7301L403.542 -94.8001C404.098 -95.1211 404.669 -95.2033 405.253 -95.0466C405.864 -94.9874 406.299 -94.662 406.558 -94.0703C408.228 -90.7509 409.058 -87.0297 409.05 -82.9065C409.068 -78.8808 407.843 -74.7965 405.375 -70.6535C402.872 -66.5723 398.871 -62.9446 393.373 -59.7702Z" fill="#FBFBFF"/>
<path d="M-77.6367 205.077C-82.4552 207.859 -86.2102 211.057 -88.9016 214.67C-91.4955 218.309 -93.0188 221.948 -93.4716 225.586C-93.8625 229.189 -93.2816 232.478 -91.7288 235.453C-91.4435 235.947 -91.0085 236.273 -90.4238 236.429C-89.8392 236.586 -89.2689 236.504 -88.7129 236.183L-86.8596 235.113C-85.7476 234.471 -85.4247 233.461 -85.8909 232.082C-87.1705 228.867 -86.9697 225.292 -85.2884 221.356C-83.6071 217.42 -79.9865 213.847 -74.4267 210.637C-68.5579 207.249 -63.5963 205.785 -59.5419 206.244C-55.3901 206.73 -52.2085 208.888 -49.9972 212.718C-48.6419 215.066 -48.2466 217.391 -48.8115 219.694C-49.2789 222.023 -50.5198 224.51 -52.5342 227.156C-54.5129 229.863 -57.6902 233.634 -62.0661 238.466C-65.9312 242.757 -68.7949 246.428 -70.657 249.48C-72.4574 252.497 -73.3821 255.46 -73.4311 258.372C-73.48 261.283 -72.5415 264.406 -70.6155 267.742C-68.7965 270.893 -66.3219 273.253 -63.1916 274.823C-59.9995 276.357 -56.3871 276.907 -52.3544 276.473C-48.286 276.101 -44.0279 274.631 -39.58 272.063C-35.0085 269.424 -31.5672 266.325 -29.2561 262.767C-26.9092 259.27 -25.633 255.774 -25.4274 252.278C-25.1861 248.844 -25.7348 245.825 -27.0736 243.221C-27.3589 242.727 -27.7939 242.401 -28.3786 242.245C-28.9015 242.052 -29.4718 242.135 -30.0896 242.491L-31.9429 243.561C-32.3753 243.811 -32.7364 244.184 -33.0262 244.681C-33.2803 245.239 -33.242 245.876 -32.9115 246.592C-31.4988 249.894 -31.7044 253.39 -33.5284 257.079C-35.2549 260.794 -38.3421 263.935 -42.79 266.503C-47.5468 269.25 -51.881 270.517 -55.7927 270.304C-59.6427 270.056 -62.6376 268.078 -64.7776 264.372C-66.1686 261.962 -66.7101 259.598 -66.4019 257.279C-65.9962 254.985 -64.8658 252.52 -63.0106 249.884C-61.1198 247.31 -58.167 243.793 -54.1522 239.334C-50.0139 234.803 -46.9518 230.976 -44.9661 227.852C-42.9804 224.729 -41.8835 221.707 -41.6753 218.786C-41.4053 215.83 -42.2333 212.684 -44.1593 209.348C-47.3693 203.788 -51.9533 200.627 -57.9113 199.867C-63.8337 199.167 -70.4088 200.904 -77.6367 205.077ZM-42.1236 185.809C-42.7414 186.166 -43.1286 186.637 -43.2853 187.221C-43.4419 187.806 -43.3419 188.407 -42.9852 189.025L-7.94274 249.72C-7.58607 250.338 -7.11541 250.725 -6.53075 250.882C-5.91043 251.1 -5.29138 251.031 -4.67362 250.675L-3.00565 249.712C-2.32611 249.319 -1.90801 248.831 -1.75135 248.246C-1.59469 247.661 -1.71253 247.029 -2.10486 246.35L-17.7269 219.292L18.0417 198.641L33.6637 225.699C34.0204 226.317 34.491 226.704 35.0757 226.86C35.696 227.079 36.3151 227.01 36.9328 226.653L38.6008 225.69C39.2804 225.298 39.6985 224.809 39.8551 224.225C40.0118 223.64 39.8939 223.008 39.5016 222.328L4.45909 161.633C4.10243 161.015 3.60088 160.646 2.95444 160.525C2.36978 160.368 1.76857 160.468 1.1508 160.825L-0.517161 161.788C-1.13493 162.145 -1.52214 162.615 -1.67879 163.2C-1.83545 163.784 -1.73545 164.386 -1.37878 165.003L14.8317 193.081L-20.9369 213.732L-37.1474 185.654C-37.504 185.037 -38.0056 184.667 -38.652 184.546C-39.2367 184.39 -39.8379 184.49 -40.4557 184.846L-42.1236 185.809ZM38.4411 138.06C22.5646 147.226 19.3321 160.459 28.7436 177.759C29.7518 179.648 31.219 182.261 33.145 185.597C35.071 188.932 36.5998 191.509 37.7316 193.327C42.8294 201.586 48.7888 206.629 55.6098 208.457C62.4308 210.285 69.5479 209.058 76.9611 204.778C84.3743 200.498 88.9947 194.948 90.8224 188.127C92.6501 181.306 91.2622 173.623 86.6586 165.079C84.6421 161.301 83.2059 158.671 82.3499 157.188C81.4939 155.705 79.9341 153.146 77.6706 149.511C67.3942 132.711 54.3177 128.893 38.4411 138.06ZM41.6511 143.62C47.211 140.41 52.591 139.527 57.7912 140.973C63.0888 142.445 67.8584 146.569 72.1002 153.345C74.3638 156.98 75.8344 159.385 76.5121 160.559C77.1897 161.732 78.5368 164.208 80.5532 167.986C84.3008 175.048 85.4696 181.209 84.0597 186.471C82.6854 191.795 79.2492 196.044 73.7511 199.218C68.253 202.393 62.8552 203.244 57.5576 201.772C52.2956 200.362 47.5438 196.269 43.302 189.493C42.1702 187.675 40.7305 185.253 38.9828 182.226C37.2352 179.199 35.8572 176.741 34.849 174.852C31.1014 167.79 29.8839 161.616 31.1964 156.328C32.6063 151.066 36.0912 146.83 41.6511 143.62ZM76.7008 117.206C76.083 117.563 75.6958 118.033 75.5391 118.618C75.3825 119.203 75.4825 119.804 75.8392 120.422L110.882 181.117C111.238 181.735 111.709 182.122 112.294 182.279C112.914 182.497 113.533 182.428 114.151 182.071L136.668 169.071C143.278 165.255 147.505 160.591 149.347 155.079C151.287 149.593 150.473 143.762 146.907 137.584C143.34 131.407 138.679 127.755 132.922 126.631C127.264 125.532 121.129 126.891 114.519 130.708L95.801 141.515L81.677 117.051C81.3204 116.433 80.8188 116.064 80.1724 115.943C79.5877 115.786 78.9865 115.886 78.3687 116.243L76.7008 117.206ZM117.266 136.535C122.579 133.468 127.223 132.31 131.199 133.062C135.211 133.876 138.501 136.507 141.069 140.955C143.637 145.403 144.252 149.536 142.916 153.356C141.615 157.237 138.308 160.711 132.995 163.778L114.74 174.318L99.011 147.075L117.266 136.535ZM150.569 73.3227C134.692 82.489 131.46 95.7221 140.872 113.022C141.88 114.911 143.347 117.524 145.273 120.859C147.199 124.195 148.728 126.772 149.86 128.59C154.957 136.849 160.917 141.892 167.738 143.72C174.559 145.547 181.676 144.321 189.089 140.041C196.502 135.761 201.123 130.211 202.95 123.39C204.778 116.569 203.39 108.886 198.787 100.342C196.77 96.5639 195.334 93.9336 194.478 92.451C193.622 90.9683 192.062 88.4094 189.799 84.7741C179.522 67.9735 166.446 64.1563 150.569 73.3227ZM153.779 78.8825C159.339 75.6725 164.719 74.7903 169.919 76.2359C175.217 77.7076 179.986 81.8316 184.228 88.6079C186.492 92.2432 187.962 94.6477 188.64 95.8215C189.318 96.9952 190.665 99.471 192.681 103.249C196.429 110.311 197.598 116.472 196.188 121.734C194.813 127.058 191.377 131.307 185.879 134.481C180.381 137.656 174.983 138.507 169.685 137.035C164.424 135.625 159.672 131.532 155.43 124.756C154.298 122.938 152.858 120.516 151.111 117.489C149.363 114.462 147.985 112.004 146.977 110.115C143.229 103.053 142.012 96.8785 143.324 91.5904C144.734 86.3285 148.219 82.0925 153.779 78.8825ZM208.495 39.8793C200.773 44.3376 196.064 50.0213 194.37 56.9302C192.675 63.8391 193.862 71.1023 197.931 78.72C198.939 80.6089 200.602 83.5611 202.92 87.5766C205.239 91.5921 206.964 94.5086 208.096 96.3262C212.658 103.659 218.355 108.318 225.186 110.305C232.016 112.292 239.293 111.056 247.015 106.598C252.266 103.566 256.112 100.028 258.554 95.9821C260.995 91.9366 262.296 88.0554 262.457 84.3386C262.715 80.6479 262.299 77.7167 261.21 75.5449L261.103 75.3596C260.818 74.8654 260.4 74.5708 259.851 74.476C259.302 74.3811 258.75 74.4941 258.194 74.8151L256.155 75.9921C255.599 76.3131 255.269 76.6685 255.165 77.0583C255.06 77.4481 255.099 78.0849 255.279 78.9689C256.12 82.8494 255.668 86.7755 253.925 90.7471C252.244 94.683 248.87 98.1134 243.805 101.038C238.059 104.355 232.609 105.401 227.454 104.177C222.361 102.916 217.765 99.0216 213.666 92.4924C212.534 90.6748 210.898 87.9127 208.758 84.2061C206.618 80.4995 205.044 77.7017 204.036 75.8128C200.431 68.9982 199.356 63.0705 200.811 58.0296C202.328 52.953 205.959 48.7562 211.705 45.4392C217.45 42.1222 223.028 41.0843 228.44 42.3254C233.851 43.5666 238.412 47.3995 242.121 53.8243L244.85 58.5502L228.726 67.8592C228.108 68.2158 227.721 68.6865 227.564 69.2712C227.443 69.9176 227.561 70.5497 227.918 71.1675L228.667 72.4648C229.024 73.0825 229.494 73.4697 230.079 73.6264C230.699 73.8448 231.318 73.7757 231.936 73.4191L251.766 61.9701C252.446 61.5777 252.864 61.0892 253.021 60.5046C253.177 59.9199 253.059 59.2878 252.667 58.6083L247.959 50.4538C245.106 45.5117 241.603 41.7271 237.45 39.1C233.298 36.473 228.731 35.1971 223.75 35.2724C218.769 35.3477 213.684 36.8833 208.495 39.8793ZM266.045 6.65246C250.169 15.8188 246.936 29.0519 256.348 46.3519C257.356 48.2409 258.823 50.8533 260.749 54.1893C262.675 57.5252 264.204 60.102 265.336 61.9196C270.433 70.1785 276.393 75.2218 283.214 77.0495C290.035 78.8772 297.152 77.6511 304.565 73.3711C311.978 69.0911 316.599 63.5405 318.427 56.7195C320.254 49.8985 318.866 42.2159 314.263 33.6716C312.246 29.8937 310.81 27.2634 309.954 25.7808C309.098 24.2981 307.538 21.7392 305.275 18.1039C294.998 1.30328 281.922 -2.51388 266.045 6.65246ZM269.255 12.2123C274.815 9.00234 280.195 8.12014 285.395 9.56573C290.693 11.0374 295.463 15.1614 299.704 21.9377C301.968 25.573 303.438 27.9775 304.116 29.1513C304.794 30.325 306.141 32.8008 308.157 36.5788C311.905 43.6404 313.074 49.8022 311.664 55.0641C310.289 60.3878 306.853 64.6368 301.355 67.8112C295.857 70.9855 290.459 71.8368 285.162 70.3651C279.9 68.9552 275.148 64.8621 270.906 58.0858C269.774 56.2681 268.335 53.8458 266.587 50.8188C264.839 47.7917 263.461 45.3337 262.453 43.4447C258.706 36.3831 257.488 30.2083 258.8 24.9202C260.21 19.6583 263.695 15.4223 269.255 12.2123ZM304.305 -14.2012C303.687 -13.8446 303.3 -13.3739 303.143 -12.7893C302.987 -12.2046 303.087 -11.6034 303.443 -10.9856L338.539 49.8024C338.896 50.4202 339.367 50.8074 339.951 50.9641C340.536 51.1207 341.137 51.0207 341.755 50.6641L343.516 49.6476C344.133 49.2909 344.52 48.8202 344.677 48.2356C344.834 47.6509 344.734 47.0497 344.377 46.4319L311.314 -10.8349L343.283 -29.2924C343.963 -29.6847 344.381 -30.1732 344.538 -30.7579C344.694 -31.3425 344.577 -31.9746 344.184 -32.6542L343.382 -34.0441C343.025 -34.6619 342.524 -35.0313 341.877 -35.1523C341.292 -35.3089 340.691 -35.2089 340.073 -34.8523L304.305 -14.2012ZM351.365 -41.3713C350.747 -41.0146 350.36 -40.544 350.203 -39.9593C350.047 -39.3747 350.147 -38.7734 350.503 -38.1557L385.599 22.6324C385.956 23.2501 386.427 23.6373 387.011 23.794C387.596 23.9507 388.197 23.8507 388.815 23.494L390.575 22.4775C391.193 22.1208 391.58 21.6502 391.737 21.0655C391.894 20.4808 391.794 19.8796 391.437 19.2619L356.341 -41.5262C355.984 -42.1439 355.514 -42.5312 354.929 -42.6878C354.344 -42.8445 353.743 -42.7445 353.125 -42.3878L351.365 -41.3713ZM390.303 -65.0877C382.272 -60.451 377.55 -54.7187 376.139 -47.8907C374.763 -41.0009 376.131 -33.6367 380.245 -25.798C381.146 -24.0944 382.685 -21.3584 384.86 -17.5901C387.072 -13.7599 388.708 -10.9978 389.768 -9.30373C394.5 -1.82178 400.175 3.01487 406.794 5.20622C413.449 7.45935 420.792 6.26758 428.823 1.63091C434.321 -1.54342 438.304 -5.20207 440.772 -9.34502C443.275 -13.4262 444.5 -17.5105 444.446 -21.598C444.49 -25.6594 443.678 -29.3498 442.008 -32.6692L441.901 -32.8545C441.616 -33.3487 441.199 -33.6433 440.65 -33.7381C440.101 -33.833 439.548 -33.72 438.992 -33.399L437.139 -32.329C436.027 -31.687 435.722 -30.646 436.224 -29.206C438.082 -23.2773 438.091 -18.3402 436.25 -14.3947C434.41 -10.4492 430.864 -6.96064 425.613 -3.92897C419.806 -0.576304 414.351 0.390285 409.248 -1.0292C404.146 -2.44869 399.509 -6.4848 395.339 -13.1376C394.314 -14.7698 392.803 -17.3157 390.805 -20.7752C388.808 -24.2347 387.323 -26.878 386.351 -28.7052C382.674 -35.6433 381.497 -41.6768 382.819 -46.8056C384.141 -51.9344 387.706 -56.1751 393.513 -59.5278C398.764 -62.5595 403.558 -63.8859 407.895 -63.507C412.232 -63.1282 416.503 -60.6521 420.709 -56.0788C421.705 -54.9241 422.759 -54.6678 423.871 -55.3098L425.724 -56.3798C426.28 -56.7008 426.637 -57.1536 426.793 -57.7383C427.047 -58.2969 426.983 -58.8363 426.6 -59.3566C424.56 -62.462 421.753 -65.0419 418.178 -67.0964C414.701 -69.1248 410.551 -70.1061 405.729 -70.0404C400.943 -69.9129 395.801 -68.262 390.303 -65.0877Z" fill="#FBFBFF"/>
</svg>
