<svg width="32" height="32" viewBox="0 0 32 32" fill="none" xmlns="http://www.w3.org/2000/svg">
<path d="M3.99951 13H9.99951V26H3.99951C3.7343 26 3.47994 25.8946 3.2924 25.7071C3.10487 25.5196 2.99951 25.2652 2.99951 25V14C2.99951 13.7348 3.10487 13.4804 3.2924 13.2929C3.47994 13.1054 3.7343 13 3.99951 13V13Z" stroke="#2F2F2F" stroke-width="2" stroke-linecap="round" stroke-linejoin="round"/>
<path d="M9.99951 13L14.9995 3C15.5248 3 16.0449 3.10346 16.5302 3.30448C17.0155 3.5055 17.4565 3.80014 17.8279 4.17157C18.1994 4.54301 18.494 4.98396 18.695 5.46927C18.896 5.95457 18.9995 6.47471 18.9995 7V10H26.7339C27.0175 10 27.2979 10.0603 27.5564 10.1769C27.8149 10.2935 28.0456 10.4638 28.2333 10.6764C28.421 10.889 28.5613 11.1391 28.645 11.41C28.7286 11.681 28.7537 11.9667 28.7185 12.2481L27.2185 24.2481C27.158 24.7318 26.923 25.1767 26.5576 25.4994C26.1921 25.822 25.7214 26 25.2339 26H9.99951" stroke="#2F2F2F" stroke-width="2" stroke-linecap="round" stroke-linejoin="round"/>
</svg>
