<svg width="16" height="16" viewBox="0 0 16 16" fill="none" xmlns="http://www.w3.org/2000/svg">
<path d="M8 16C12.4183 16 16 12.4183 16 8C16 3.58172 12.4183 0 8 0C3.58172 0 0 3.58172 0 8C0 12.4183 3.58172 16 8 16Z" fill="#F0F0F0"/>
<path d="M1.65355 3.12888C1.02514 3.94647 0.551297 4.88881 0.275391 5.91253H4.4372L1.65355 3.12888Z" fill="#0052B4"/>
<path d="M15.7247 5.91257C15.4488 4.88888 14.975 3.94653 14.3466 3.12894L11.563 5.91257H15.7247Z" fill="#0052B4"/>
<path d="M0.275391 10.0868C0.551328 11.1105 1.02517 12.0529 1.65355 12.8704L4.43711 10.0868H0.275391Z" fill="#0052B4"/>
<path d="M12.8705 1.65346C12.0529 1.02505 11.1106 0.551206 10.0869 0.275269V4.43705L12.8705 1.65346Z" fill="#0052B4"/>
<path d="M3.12891 14.3463C3.9465 14.9747 4.88884 15.4486 5.91253 15.7245V11.5628L3.12891 14.3463Z" fill="#0052B4"/>
<path d="M5.9125 0.275269C4.88881 0.551206 3.94647 1.02505 3.12891 1.65342L5.9125 4.43702V0.275269Z" fill="#0052B4"/>
<path d="M10.0869 15.7245C11.1106 15.4486 12.0529 14.9747 12.8705 14.3464L10.0869 11.5628V15.7245Z" fill="#0052B4"/>
<path d="M11.563 10.0868L14.3466 12.8704C14.975 12.0529 15.4488 11.1105 15.7247 10.0868H11.563Z" fill="#0052B4"/>
<path d="M15.9323 6.95653H9.04353H9.0435V0.0677188C8.70191 0.02325 8.35366 0 8 0C7.64628 0 7.29809 0.02325 6.95653 0.0677188V6.95647V6.9565H0.0677188C0.02325 7.29809 0 7.64634 0 8C0 8.35372 0.02325 8.70191 0.0677188 9.04347H6.95647H6.9565V15.9323C7.29809 15.9768 7.64628 16 8 16C8.35366 16 8.70191 15.9768 9.04347 15.9323V9.04353V9.0435H15.9323C15.9768 8.70191 16 8.35372 16 8C16 7.64634 15.9768 7.29809 15.9323 6.95653Z" fill="#D80027"/>
<path d="M10.0867 10.0868L13.6565 13.6567C13.8207 13.4925 13.9774 13.3209 14.1268 13.1431L11.0705 10.0868H10.0867V10.0868Z" fill="#D80027"/>
<path d="M5.91267 10.0868H5.91261L2.34277 13.6567C2.5069 13.8209 2.67849 13.9775 2.85637 14.1269L5.91267 11.0705V10.0868Z" fill="#D80027"/>
<path d="M5.91342 5.91266V5.91259L2.34354 2.34268C2.17935 2.50681 2.02273 2.6784 1.87329 2.85628L4.92963 5.91263H5.91342V5.91266Z" fill="#D80027"/>
<path d="M10.0867 5.91348L13.6566 2.34354C13.4925 2.17935 13.3209 2.02273 13.143 1.87332L10.0867 4.92966V5.91348Z" fill="#D80027"/>
</svg>
