<svg width="16" height="16" viewBox="0 0 16 16" fill="none" xmlns="http://www.w3.org/2000/svg">
<g clip-path="url(#clip0)">
<path d="M7.82881 12.5261H8.78488C8.78488 12.5261 9.0739 12.4941 9.22091 12.335C9.35692 12.189 9.35192 11.915 9.35192 11.915C9.35192 11.915 9.33292 10.6319 9.92896 10.4429C10.516 10.2569 11.2701 11.683 12.0691 12.232C12.6732 12.6471 13.1322 12.5561 13.1322 12.5561L15.2694 12.5261C15.2694 12.5261 16.3874 12.4571 15.8574 11.578C15.8144 11.506 15.5484 10.9279 14.2683 9.73986C12.9282 8.49576 13.1082 8.69778 14.7223 6.54662C15.7054 5.23652 16.0984 4.43646 15.9754 4.09444C15.8584 3.76841 15.1354 3.85442 15.1354 3.85442L12.7312 3.86842C12.7312 3.86842 12.5532 3.84442 12.4202 3.92342C12.2911 4.00143 12.2081 4.18144 12.2081 4.18144C12.2081 4.18144 11.8271 5.19552 11.3191 6.05758C10.248 7.87672 9.81896 7.97272 9.64394 7.85972C9.23691 7.5967 9.33892 6.80164 9.33892 6.2376C9.33892 4.47446 9.60594 3.73941 8.81788 3.5494C8.55586 3.48639 8.36385 3.44439 7.6948 3.43739C6.83673 3.42839 6.10968 3.44039 5.69865 3.6414C5.42463 3.77541 5.21361 4.07444 5.34262 4.09144C5.50163 4.11244 5.86166 4.18844 6.05267 4.44846C6.29969 4.78349 6.29069 5.53754 6.29069 5.53754C6.29069 5.53754 6.4327 7.6127 5.95967 7.87072C5.63464 8.04773 5.18961 7.6867 4.23454 6.03558C3.7455 5.19052 3.37548 4.25545 3.37548 4.25545C3.37548 4.25545 3.30447 4.08144 3.17746 3.98843C3.02345 3.87542 2.80743 3.83942 2.80743 3.83942L0.521262 3.85342C0.521262 3.85342 0.178237 3.86342 0.0522271 4.01243C-0.0597812 4.14544 0.0432265 4.41946 0.0432265 4.41946C0.0432265 4.41946 1.83336 8.60677 3.85951 10.7179C5.71865 12.6531 7.82881 12.5261 7.82881 12.5261Z" fill="#FBFBFF"/>
</g>
<defs>
<clipPath id="clip0">
<rect width="16" height="16" fill="white"/>
</clipPath>
</defs>
</svg>
